HIERARCHY
ROOT Hips
{
 OFFSET 0.000000 0.000000 0.000000
 CHANNELS 6 Xposition Yposition Zposition Yrotation Xrotation Zrotation
 JOINT Chest
 {
  OFFSET 0.000000 14.632000 -0.008700
  CHANNELS 3 Yrotation Xrotation Zrotation
  JOINT Chest2
  {
   OFFSET 0.000000 8.637700 0.017800
   CHANNELS 3 Yrotation Xrotation Zrotation
   JOINT Chest3
   {
    OFFSET 0.000000 8.599900 0.000000
    CHANNELS 3 Yrotation Xrotation Zrotation
    JOINT Chest4
    {
     OFFSET 0.000000 8.591100 0.000000
     CHANNELS 3 Yrotation Xrotation Zrotation
     JOINT Neck
     {
      OFFSET 0.000000 13.139200 0.000000
      CHANNELS 3 Yrotation Xrotation Zrotation
      JOINT Head
      {
       OFFSET 0.000000 8.045900 0.037600
       CHANNELS 3 Yrotation Xrotation Zrotation
       End Site
       {
        OFFSET 0.000000 15.258900 0.019900
       }
      }
     }
     JOINT RightCollar
     {
      OFFSET -2.790300 8.725300 0.000000
      CHANNELS 3 Yrotation Xrotation Zrotation
      JOINT RightShoulder
      {
       OFFSET -13.162000 0.000000 0.000000
       CHANNELS 3 Yrotation Xrotation Zrotation
       JOINT RightElbow
       {
        OFFSET 0.000000 -23.347200 0.000000
        CHANNELS 3 Yrotation Xrotation Zrotation
        JOINT RightWrist
        {
         OFFSET 0.000000 -19.377400 0.019700
         CHANNELS 3 Yrotation Xrotation Zrotation
         End Site
         {
          OFFSET 0.000000 -14.645200 0.000000
         }
        }
       }
      }
     }
     JOINT LeftCollar
     {
      OFFSET 2.790300 8.725300 0.000000
      CHANNELS 3 Yrotation Xrotation Zrotation
      JOINT LeftShoulder
      {
       OFFSET 13.162000 0.000000 0.000000
       CHANNELS 3 Yrotation Xrotation Zrotation
       JOINT LeftElbow
       {
        OFFSET 0.000000 -23.347200 0.000000
        CHANNELS 3 Yrotation Xrotation Zrotation
        JOINT LeftWrist
        {
         OFFSET 0.000000 -19.377400 0.019700
         CHANNELS 3 Yrotation Xrotation Zrotation
         End Site
         {
          OFFSET 0.000000 -14.645200 0.000000
         }
        }
       }
      }
     }
    }
   }
  }
 }
 JOINT RightHip
 {
  OFFSET -11.965000 0.043200 0.004400
  CHANNELS 3 Yrotation Xrotation Zrotation
  JOINT RightKnee
  {
   OFFSET 0.000000 -37.808000 -0.003100
   CHANNELS 3 Yrotation Xrotation Zrotation
   JOINT RightAnkle
   {
    OFFSET 0.000000 -38.963200 0.011000
    CHANNELS 3 Yrotation Xrotation Zrotation
    JOINT RightToe
    {
     OFFSET 0.000000 -8.453600 14.155200
     CHANNELS 3 Yrotation Xrotation Zrotation
     End Site
     {
      OFFSET 0.000000 -1.360900 5.784800
     }
    }
   }
  }
 }
 JOINT LeftHip
 {
  OFFSET 11.965000 0.043200 0.004400
  CHANNELS 3 Yrotation Xrotation Zrotation
  JOINT LeftKnee
  {
   OFFSET 0.000000 -37.808000 -0.003100
   CHANNELS 3 Yrotation Xrotation Zrotation
   JOINT LeftAnkle
   {
    OFFSET 0.000000 -38.963200 0.011000
    CHANNELS 3 Yrotation Xrotation Zrotation
    JOINT LeftToe
    {
     OFFSET 0.000000 -8.453600 14.155200
     CHANNELS 3 Yrotation Xrotation Zrotation
     End Site
     {
      OFFSET 0.000000 -1.360900 5.784800
     }
    }
   }
  }
 }
}
MOTION
Frames: 9
Frame Time: 0.008333
0.000000 85.009900 0.000000 0.000000 -5.767877 0.000000 0.000000 11.653817 0.000000 0.000000 -5.885947 0.000000 0.000000 -0.000000 0.000000 0.000000 -0.000000 0.000000 0.000000 12.528835 0.000000 0.000000 0.711642 0.000000 0.000000 -0.000000 0.000000 0.000000 0.000000 -90.000000 0.000000 -2.309062 0.000000 0.000000 2.309062 0.000000 0.000000 -0.000000 0.000000 0.000000 -0.000000 90.000000 0.000000 -2.309062 0.000000 0.000000 2.309062 0.000000 0.000000 8.520406 0.000000 0.000000 1.905762 0.000000 -0.000000 -4.658285 0.000000 0.000000 -0.000000 0.000000 0.000000 8.520406 0.000000 0.000000 1.905762 0.000000 -0.000000 -4.658285 0.000000 0.000000 -0.000000 0.000000
-86.651112 60.986523 2.281656 -178.659177 -33.210615 -2.329846 2.384584 23.274110 2.514438 0.302254 3.419087 0.226378 0.413151 5.571546 0.302910 1.736869 19.610538 1.373543 -1.985196 14.243609 -0.480441 -3.547656 -9.332644 -0.139989 0.751585 1.390021 -2.054538 -0.535692 -7.321341 -10.876325 169.957397 -63.660351 -149.318439 22.487223 -16.631772 -59.625027 -5.204548 3.002219 1.661067 22.520887 -0.912402 -3.121810 -163.654113 -44.848663 148.528425 -13.637380 -19.298503 43.050920 7.214320 -37.344401 -7.281967 -4.519275 71.509290 -3.502915 3.055915 4.702027 6.902692 -0.075411 0.140716 -0.035891 -10.736030 -45.904601 2.002493 29.608820 69.173973 26.978281 -8.527692 32.106093 3.150679 1.196849 -24.413240 -6.494047
-86.649073 60.985973 2.287773 -178.662362 -33.226028 -2.354154 2.383417 23.296749 2.522705 0.283478 3.436234 0.207691 0.406126 5.597243 0.302685 1.764468 19.591836 1.389521 -1.935596 14.324737 -0.480872 -3.411046 -9.239091 -0.166715 0.745882 1.446207 -2.061770 -0.462225 -7.316936 -10.808055 169.953312 -63.733360 -149.343404 22.492030 -16.623796 -59.609400 -5.222592 3.062894 1.657861 22.603674 -0.915915 -3.078621 -163.511411 -44.789633 148.497010 -13.636259 -19.280378 43.031266 7.202788 -37.323317 -7.249424 -4.489417 71.485932 -3.467527 3.046076 4.706368 6.898578 -0.076920 0.143957 -0.033272 -10.765998 -45.889518 2.032491 29.615520 69.172384 26.995146 -8.525398 32.112047 3.144677 1.204381 -24.414837 -6.506046
-86.646396 60.984078 2.295849 -178.659191 -33.234343 -2.389484 2.380806 23.313077 2.541546 0.239900 3.477085 0.169781 0.452664 5.567180 0.338258 1.759780 19.603831 1.390559 -1.887538 14.403011 -0.486987 -3.282146 -9.142941 -0.200262 0.741703 1.494379 -2.069533 -0.399791 -7.309393 -10.749424 169.982449 -63.787617 -149.396918 22.500584 -16.617003 -59.594166 -5.229311 3.097011 1.651983 22.664768 -0.920785 -3.037787 -163.317573 -44.741598 148.425315 -13.634459 -19.254195 43.007828 7.182154 -37.310722 -7.207991 -4.487571 71.459286 -3.459055 3.042784 4.719333 6.896771 -0.068534 0.121591 -0.035368 -10.812583 -45.882806 2.070067 29.627178 69.166003 27.038039 -8.567781 32.121341 3.089868 1.233431 -24.415774 -6.509469
-86.642132 60.983367 2.301491 -178.667760 -33.252714 -2.430152 2.381644 23.343578 2.554648 0.252987 3.474954 0.182541 0.452146 5.574532 0.339758 1.707549 19.680969 1.371710 -1.792209 14.414466 -0.491119 -3.161270 -9.042499 -0.239401 0.797532 1.437146 -2.069490 -0.362894 -7.267828 -10.699557 169.953887 -63.771388 -149.388900 22.454693 -16.584365 -59.566675 -5.188101 3.063568 1.656564 22.709892 -0.951070 -3.024458 -163.048354 -44.699050 148.289498 -13.631126 -19.227306 42.985409 7.180243 -37.285942 -7.163726 -4.468115 71.429336 -3.414659 3.031572 4.736551 6.890505 -0.068146 0.118792 -0.033889 -10.857591 -45.867218 2.121596 29.653937 69.169886 27.084157 -8.563353 32.130805 3.076285 1.227813 -24.425769 -6.516489
-86.651090 60.979872 2.309430 -178.684311 -33.255085 -2.419613 2.367176 23.360987 2.511645 0.267078 3.471495 0.198501 0.437237 5.597305 0.328481 1.704357 19.707523 1.375472 -1.725581 14.456672 -0.501352 -3.048802 -8.941772 -0.283548 0.797984 1.457189 -2.073061 -0.311650 -7.280539 -10.651173 170.008231 -63.816723 -149.450353 22.493008 -16.591579 -59.555104 -5.177145 3.063944 1.658830 22.783720 -0.947058 -2.964216 -162.839576 -44.623292 148.218720 -13.628365 -19.205366 42.965352 7.270369 -37.277234 -7.240095 -4.484097 71.420220 -3.349105 3.038101 4.730961 6.873191 -0.063105 0.130100 -0.031847 -10.846167 -45.872700 2.112302 29.643695 69.175221 27.093914 -8.607263 32.123324 3.006611 1.263392 -24.415108 -6.493598
-86.642910 60.977998 2.314405 -178.700204 -33.263041 -2.481653 2.364511 23.401014 2.516452 0.290238 3.459727 0.225426 0.437615 5.606813 0.330363 1.714222 19.723259 1.382887 -1.673083 14.508771 -0.516714 -2.943830 -8.846009 -0.333571 0.776607 1.480292 -2.074003 -0.261190 -7.296693 -10.612175 170.014152 -63.842163 -149.470813 22.524297 -16.607331 -59.544143 -5.186436 3.078433 1.663762 22.876117 -0.946008 -2.901560 -162.623048 -44.535524 148.140718 -13.627603 -19.187563 42.945093 7.261269 -37.262413 -7.180375 -4.499941 71.379978 -3.314514 3.046577 4.757493 6.855811 -0.065312 0.119442 -0.034867 -10.911859 -45.868350 2.189417 29.670976 69.182709 27.144888 -8.547992 32.151621 3.048591 1.240182 -24.443638 -6.537017
-86.645889 60.975315 2.318510 -178.707002 -33.264634 -2.509192 2.360312 23.420312 2.514120 0.292623 3.465801 0.228394 0.423515 5.642090 0.315039 1.743186 19.710836 1.402799 -1.623031 14.557374 -0.536732 -2.841821 -8.756868 -0.391156 0.778256 1.457648 -2.069156 -0.245487 -7.280801 -10.583593 169.966198 -63.837295 -149.439845 22.531949 -16.633920 -59.536253 -5.191890 3.077938 1.674032 22.967427 -0.940208 -2.844201 -162.367305 -44.437756 148.031624 -13.627579 -19.173158 42.920183 7.268747 -37.257194 -7.174407 -4.474816 71.361475 -3.255428 3.048333 4.768525 6.848090 -0.069451 0.112669 -0.036917 -10.946593 -45.876249 2.210253 29.697089 69.191768 27.197077 -8.525736 32.158760 3.036425 1.235362 -24.452567 -6.545599
-86.652630 60.973512 2.319652 -178.713589 -33.269208 -2.525680 2.355888 23.438687 2.507626 0.265723 3.500967 0.194878 0.469383 5.600930 0.360943 1.740086 19.726368 1.400075 -1.598225 14.580824 -0.547954 -2.722347 -8.625775 -0.482930 0.770180 1.457194 -2.067474 -0.241379 -7.274478 -10.562345 169.904066 -63.824428 -149.396497 22.507062 -16.626860 -59.505963 -5.190084 3.070070 1.680437 23.056866 -0.901628 -2.766922 -162.099621 -44.324604 147.917807 -13.628055 -19.159662 42.892828 7.274888 -37.248156 -7.180865 -4.480633 71.349577 -3.227519 3.061031 4.768741 6.819352 -0.078718 0.103879 -0.028420 -10.964843 -45.877707 2.222372 29.720200 69.196792 27.233312 -8.523388 32.168513 3.028776 1.242940 -24.462932 -6.552938
